<?xml version="1.0" encoding="utf-8"?>
<!-- Generator: Adobe Illustrator 22.0.1, SVG Export Plug-In . SVG Version: 6.00 Build 0)  -->
<svg version="1.1" id="Capa_1" xmlns="http://www.w3.org/2000/svg" xmlns:xlink="http://www.w3.org/1999/xlink" x="0px" y="0px"
	 viewBox="0 0 450 120" style="enable-background:new 0 0 450 120;" xml:space="preserve">
<style type="text/css">
	.st0{fill:#FFFFFF;}
</style>
<g>
	<g>
		<path class="st0" d="M135,62.4l-13.1-18.7h11.2l6.7,9.9l6.7-9.9h11.2l-13.2,18.7v17.3h-9.3L135,62.4L135,62.4z"/>
		<path class="st0" d="M157.9,61.7c0-2.7,0.5-5.1,1.5-7.5c1-2.3,2.4-4.3,4.1-6c1.7-1.7,3.8-3,6.3-4c2.4-1,5.1-1.5,8-1.5
			c2.9,0,5.6,0.5,8,1.5c2.5,1,4.6,2.3,6.4,4c1.8,1.7,3.1,3.7,4.1,6s1.5,4.8,1.5,7.5c0,2.7-0.5,5.1-1.5,7.5c-1,2.3-2.4,4.3-4.1,6
			c-1.8,1.7-3.9,3-6.4,4s-5.1,1.5-8,1.5c-2.9,0-5.6-0.5-8-1.5c-2.4-1-4.5-2.3-6.3-4c-1.7-1.7-3.1-3.7-4.1-6
			C158.4,66.9,157.9,64.4,157.9,61.7z M167.7,61.7c0,1.4,0.3,2.8,0.8,4c0.5,1.2,1.3,2.3,2.2,3.1c0.9,0.9,2,1.6,3.2,2.1
			c1.2,0.5,2.5,0.7,3.9,0.7c1.4,0,2.7-0.3,3.9-0.7c1.2-0.5,2.3-1.2,3.3-2.1c0.9-0.9,1.7-1.9,2.2-3.1c0.5-1.2,0.8-2.5,0.8-4
			c0-1.4-0.3-2.7-0.8-4c-0.5-1.2-1.3-2.3-2.2-3.1c-0.9-0.9-2-1.6-3.3-2.1c-1.2-0.5-2.5-0.7-3.9-0.7c-1.4,0-2.7,0.3-3.9,0.7
			c-1.2,0.5-2.3,1.2-3.2,2.1c-0.9,0.9-1.7,1.9-2.2,3.1C168,59,167.7,60.3,167.7,61.7z"/>
		<path class="st0" d="M203.3,61.7c0-2.7,0.5-5.1,1.5-7.5c1-2.3,2.4-4.3,4.1-6c1.7-1.7,3.8-3,6.3-4c2.4-1,5.1-1.5,8-1.5
			c2.9,0,5.6,0.5,8,1.5c2.5,1,4.6,2.3,6.4,4c1.8,1.7,3.1,3.7,4.1,6s1.5,4.8,1.5,7.5c0,2.7-0.5,5.1-1.5,7.5c-1,2.3-2.4,4.3-4.1,6
			c-1.8,1.7-3.9,3-6.4,4c-2.5,1-5.1,1.5-8,1.5c-2.9,0-5.6-0.5-8-1.5c-2.4-1-4.5-2.3-6.3-4c-1.7-1.7-3.1-3.7-4.1-6
			C203.8,66.9,203.3,64.4,203.3,61.7z M213.1,61.7c0,1.4,0.3,2.8,0.8,4c0.5,1.2,1.3,2.3,2.2,3.1c0.9,0.9,2,1.6,3.2,2.1
			c1.2,0.5,2.5,0.7,3.9,0.7c1.4,0,2.7-0.3,3.9-0.7c1.2-0.5,2.3-1.2,3.3-2.1c0.9-0.9,1.7-1.9,2.2-3.1c0.5-1.2,0.8-2.5,0.8-4
			c0-1.4-0.3-2.7-0.8-4c-0.5-1.2-1.3-2.3-2.2-3.1c-0.9-0.9-2-1.6-3.3-2.1c-1.2-0.5-2.5-0.7-3.9-0.7c-1.4,0-2.7,0.3-3.9,0.7
			s-2.3,1.2-3.2,2.1c-0.9,0.9-1.7,1.9-2.2,3.1C213.4,59,213.1,60.3,213.1,61.7z"/>
		<path class="st0" d="M255.7,43.7l6.2,23.2l7.7-23.2h7.5l7.7,23.2l6.2-23.2h9.8L290,79.7h-9.6l-7.1-20.9l-7.1,20.9h-9.6l-10.8-36.1
			H255.7z"/>
		<path class="st0" d="M335.7,79.7H324l-8.9-13.9v13.9h-9.3v-36h14.6c2,0,3.8,0.3,5.2,0.9c1.5,0.6,2.7,1.4,3.7,2.4
			c0.9,1,1.7,2.2,2.2,3.5c0.5,1.3,0.7,2.8,0.7,4.3c0,2.7-0.7,5-2,6.7c-1.3,1.7-3.3,2.8-5.9,3.5L335.7,79.7z M315.1,59.8h1.8
			c1.8,0,3.3-0.4,4.3-1.2c1-0.8,1.5-1.9,1.5-3.3s-0.5-2.5-1.5-3.3c-1-0.8-2.4-1.2-4.3-1.2h-1.8V59.8z"/>
		<path class="st0" d="M350.2,43.7v36.1h-9.3V43.7H350.2z"/>
		<path class="st0" d="M372.6,51.6v28.1h-9.4V51.6h-7.7v-7.9h24.8v7.9H372.6z"/>
		<path class="st0" d="M406.1,51.6H395v6h10.5v7.9H395v6.2h11.1v7.9h-20.5v-36h20.5V51.6z"/>
		<path class="st0" d="M444,79.7h-11.7l-8.9-13.9v13.9h-9.3v-36h14.6c2,0,3.8,0.3,5.2,0.9c1.5,0.6,2.7,1.4,3.7,2.4
			c0.9,1,1.7,2.2,2.2,3.5c0.5,1.3,0.7,2.8,0.7,4.3c0,2.7-0.7,5-2,6.7c-1.3,1.7-3.3,2.8-5.9,3.5L444,79.7z M423.4,59.8h1.8
			c1.8,0,3.3-0.4,4.3-1.2c1-0.8,1.5-1.9,1.5-3.3s-0.5-2.5-1.5-3.3c-1-0.8-2.4-1.2-4.3-1.2h-1.8V59.8z"/>
	</g>
	<g>
		<polygon class="st0" points="52.2,58.3 86.8,38.6 76.8,32.8 42.3,52.5 42.1,92.2 52,98 		"/>
		<polygon class="st0" points="33.3,47.3 67.8,27.6 57.9,21.8 23.4,41.4 23.2,81.2 33.1,87 		"/>
		<polygon class="st0" points="91.9,46.3 61.5,63.7 61.3,98.7 91.7,81.4 		"/>
	</g>
	<path class="st0" d="M57.5,120L5.8,90.1V30.4L57.5,0.5l51.7,29.9v59.8L57.5,120z M16.6,83.8l40.9,23.6l40.9-23.6V36.6L57.5,13
		L16.6,36.6V83.8z"/>
</g>
</svg>
