<?xml version="1.0" encoding="utf-8"?>
<!-- Generator: Adobe Illustrator 22.0.1, SVG Export Plug-In . SVG Version: 6.00 Build 0)  -->
<svg version="1.1" id="Capa_1" xmlns="http://www.w3.org/2000/svg" xmlns:xlink="http://www.w3.org/1999/xlink" x="0px" y="0px"
	 viewBox="0 0 1065 230" style="enable-background:new 0 0 1065 230;" xml:space="preserve">
<style type="text/css">
	.st0{fill:#201E33;}
</style>
<g>
	<g>
		<path class="st0" d="M246.3,120.2l-25-35.7h21.3l12.7,18.8L268,84.5h21.3l-25.1,35.7v33h-17.8V120.2z"/>
		<path class="st0" d="M289.9,118.8c0-5.1,0.9-9.8,2.8-14.3c1.9-4.4,4.5-8.2,7.8-11.5c3.3-3.3,7.3-5.8,12-7.7
			c4.6-1.9,9.8-2.8,15.3-2.8c5.5,0,10.6,0.9,15.3,2.8c4.7,1.9,8.7,4.4,12.1,7.7c3.4,3.3,6,7.1,7.9,11.5c1.9,4.4,2.8,9.2,2.8,14.3
			c0,5.1-0.9,9.8-2.8,14.3c-1.9,4.4-4.5,8.2-7.9,11.5c-3.4,3.3-7.4,5.8-12.1,7.7c-4.7,1.9-9.8,2.8-15.3,2.8
			c-5.6,0-10.7-0.9-15.3-2.8c-4.6-1.9-8.6-4.4-12-7.7c-3.3-3.3-6-7.1-7.8-11.5C290.8,128.7,289.9,123.9,289.9,118.8z M308.5,118.8
			c0,2.7,0.5,5.3,1.5,7.6c1,2.3,2.4,4.3,4.2,6c1.8,1.7,3.8,3,6.1,4c2.3,0.9,4.8,1.4,7.4,1.4c2.6,0,5.1-0.5,7.4-1.4
			c2.3-0.9,4.4-2.3,6.2-4c1.8-1.7,3.2-3.7,4.2-6c1-2.3,1.5-4.8,1.5-7.6c0-2.7-0.5-5.2-1.5-7.6c-1-2.3-2.4-4.3-4.2-6
			c-1.8-1.7-3.9-3-6.2-4c-2.3-0.9-4.8-1.4-7.4-1.4c-2.6,0-5.1,0.5-7.4,1.4c-2.3,0.9-4.4,2.3-6.1,4c-1.8,1.7-3.2,3.7-4.2,6
			C309.1,113.6,308.5,116.1,308.5,118.8z"/>
		<path class="st0" d="M376.4,118.8c0-5.1,0.9-9.8,2.8-14.3c1.9-4.4,4.5-8.2,7.8-11.5c3.3-3.3,7.3-5.8,12-7.7
			c4.6-1.9,9.8-2.8,15.3-2.8c5.5,0,10.6,0.9,15.3,2.8c4.7,1.9,8.7,4.4,12.1,7.7c3.4,3.3,6,7.1,7.9,11.5c1.9,4.4,2.8,9.2,2.8,14.3
			c0,5.1-0.9,9.8-2.8,14.3c-1.9,4.4-4.5,8.2-7.9,11.5c-3.4,3.3-7.4,5.8-12.1,7.7c-4.7,1.9-9.8,2.8-15.3,2.8
			c-5.6,0-10.7-0.9-15.3-2.8c-4.6-1.9-8.6-4.4-12-7.7c-3.3-3.3-6-7.1-7.8-11.5C377.3,128.7,376.4,123.9,376.4,118.8z M395,118.8
			c0,2.7,0.5,5.3,1.5,7.6c1,2.3,2.4,4.3,4.2,6c1.8,1.7,3.8,3,6.1,4c2.3,0.9,4.8,1.4,7.4,1.4c2.6,0,5.1-0.5,7.4-1.4
			c2.3-0.9,4.4-2.3,6.2-4c1.8-1.7,3.2-3.7,4.2-6c1-2.3,1.5-4.8,1.5-7.6c0-2.7-0.5-5.2-1.5-7.6c-1-2.3-2.4-4.3-4.2-6
			c-1.8-1.7-3.9-3-6.2-4c-2.3-0.9-4.8-1.4-7.4-1.4c-2.6,0-5.1,0.5-7.4,1.4c-2.3,0.9-4.4,2.3-6.1,4c-1.8,1.7-3.2,3.7-4.2,6
			C395.6,113.6,395,116.1,395,118.8z"/>
		<path class="st0" d="M476.3,84.5l11.8,44.3l14.6-44.3H517l14.6,44.3l11.8-44.3H562l-20.5,68.7h-18.2l-13.5-39.8l-13.5,39.8h-18.2
			l-20.5-68.7H476.3z"/>
		<path class="st0" d="M628.6,153.1h-22.2l-17-26.4v26.4h-17.8V84.5h27.8c3.8,0,7.2,0.6,10,1.7c2.9,1.1,5.2,2.7,7.1,4.6
			c1.8,1.9,3.2,4.2,4.2,6.7c0.9,2.5,1.4,5.3,1.4,8.2c0,5.2-1.3,9.5-3.8,12.7c-2.5,3.2-6.2,5.4-11.2,6.6L628.6,153.1z M589.3,115.2
			h3.4c3.5,0,6.2-0.7,8.1-2.2c1.9-1.5,2.8-3.6,2.8-6.3s-0.9-4.8-2.8-6.3c-1.9-1.5-4.6-2.2-8.1-2.2h-3.4V115.2z"/>
		<path class="st0" d="M656.2,84.5v68.7h-17.8V84.5H656.2z"/>
		<path class="st0" d="M698.9,99.6v53.5H681V99.6h-14.7V84.5h47.2v15.1H698.9z"/>
		<path class="st0" d="M762.8,99.6h-21.2v11.5h20v15.1h-20V138h21.2v15.1h-39.1V84.5h39.1V99.6z"/>
		<path class="st0" d="M835,153.1h-22.2l-17-26.4v26.4h-17.8V84.5h27.8c3.8,0,7.2,0.6,10,1.7c2.9,1.1,5.2,2.7,7.1,4.6
			c1.8,1.9,3.2,4.2,4.2,6.7c0.9,2.5,1.4,5.3,1.4,8.2c0,5.2-1.3,9.5-3.8,12.7c-2.5,3.2-6.2,5.4-11.2,6.6L835,153.1z M795.8,115.2h3.4
			c3.5,0,6.2-0.7,8.1-2.2c1.9-1.5,2.8-3.6,2.8-6.3s-0.9-4.8-2.8-6.3c-1.9-1.5-4.6-2.2-8.1-2.2h-3.4V115.2z"/>
	</g>
	<g>
		<polygon class="st0" points="88.5,112.3 154.3,74.8 135.3,63.7 69.5,101.3 69.2,177 88.1,188 		"/>
		<polygon class="st0" points="52.5,91.3 118.2,53.8 99.3,42.7 33.5,80.2 33.1,155.9 52.1,167 		"/>
		<polygon class="st0" points="164.1,89.5 106.1,122.6 105.7,189.4 163.8,156.3 		"/>
	</g>
	<path class="st0" d="M98.6,229.9L0,173V59.1L98.6,2.2l98.6,56.9V173L98.6,229.9z M20.7,161l77.9,45l77.9-45V71L98.6,26L20.7,71V161
		z"/>
</g>
</svg>
